<svg width="816" height="32" viewBox="0 0 816 32" fill="none" xmlns="http://www.w3.org/2000/svg">
<rect y="15.5" width="392" height="1" fill="#58557A"/>
<path d="M410.596 11.3306C410.582 12.8129 409.343 14.0029 407.828 13.9893C407.392 13.9854 406.981 13.8824 406.618 13.7031C407.53 13.2739 408.163 12.3652 408.173 11.3089C408.183 10.2524 407.568 9.33354 406.663 8.88786C407.03 8.71541 407.443 8.6197 407.878 8.62365C409.394 8.63742 410.611 9.84994 410.596 11.3306Z" fill="#58557A"/>
<path d="M412.025 10.2012V12.4446C411.983 12.4936 411.938 13.8243 411.889 13.8702C411.65 14.1012 411.378 14.2816 411.088 14.4096C410.762 14.5551 410.414 14.6326 410.063 14.6453C409.901 14.6516 409.738 14.6437 409.576 14.6217C409.54 14.617 409.505 14.6121 409.467 14.6057C409.466 14.6057 409.463 14.6042 409.459 14.6042C409.155 14.5488 408.859 14.4444 408.584 14.2877C408.429 14.199 408.28 14.0947 408.141 13.9729C408.096 13.9349 408.052 13.8954 408.01 13.8527C407.99 13.8337 407.971 13.8131 407.952 13.7925C407.846 13.6834 407.754 13.5679 407.673 13.4475C407.592 13.3306 407.523 13.2086 407.463 13.082C407.423 12.995 407.387 12.9064 407.356 12.8162C407.444 12.8461 407.533 12.8716 407.623 12.892C407.795 12.9316 407.971 12.9553 408.149 12.9616C408.219 12.9632 408.29 12.9632 408.361 12.96C408.566 12.9537 408.772 12.9236 408.972 12.8699C409.416 12.7528 409.835 12.525 410.184 12.1864C410.207 12.1642 410.229 12.1421 410.25 12.1199C410.369 11.9965 410.474 11.8652 410.563 11.7277C411.017 11.0364 411.114 10.1868 410.854 9.42737C411.239 9.55694 411.601 9.77369 411.907 10.076C411.947 10.1173 411.988 10.1586 412.025 10.2012Z" fill="#58557A"/>
<path d="M408.937 12.4845C409.18 13.9476 408.164 15.3255 406.668 15.5625C406.238 15.6308 405.815 15.5971 405.426 15.4805C406.251 14.9067 406.717 13.9061 406.544 12.8635C406.372 11.8206 405.606 11.0166 404.638 10.7271C404.97 10.4963 405.361 10.3338 405.79 10.2657C407.286 10.0289 408.695 11.0223 408.937 12.4845Z" fill="#58557A"/>
<path d="M412.025 19.1449V23.0606C412.025 23.0479 412.023 23.0305 412.023 23.0099C412.023 22.2648 411.405 21.6604 410.643 21.6604C410.302 21.6604 409.992 21.7824 409.75 21.9816C409.717 22.01 409.683 22.0401 409.652 22.0717C409.411 22.3136 412.025 18.781 412.025 19.1449Z" fill="#58557A"/>
<path d="M406.018 19.3821C403.901 19.3821 402.178 17.6978 402.178 15.6277C402.178 13.5577 403.901 11.8734 406.018 11.8734C408.135 11.8734 409.857 13.5577 409.857 15.6277C409.857 17.6978 408.135 19.3821 406.018 19.3821Z" fill="#8984C0"/>
<path d="M406.018 12.1106C408.004 12.1106 409.614 13.6853 409.614 15.6276C409.614 17.57 408.004 19.1446 406.018 19.1446C404.032 19.1446 402.421 17.57 402.421 15.6276C402.421 13.6853 404.032 12.1106 406.018 12.1106ZM406.018 11.636C403.767 11.636 401.936 13.4266 401.936 15.6276C401.936 17.8286 403.767 19.6193 406.018 19.6193C408.269 19.6193 410.099 17.8286 410.099 15.6276C410.099 13.4266 408.269 11.636 406.018 11.636Z" fill="#58557A"/>
<path d="M406.018 16.9766C406.78 16.9766 407.397 16.3726 407.397 15.6275C407.397 14.8824 406.78 14.2784 406.018 14.2784C405.256 14.2784 404.639 14.8824 404.639 15.6275C404.639 16.3726 405.256 16.9766 406.018 16.9766Z" fill="#58557A"/>
<path d="M412.025 18.8109V19.757L409.75 21.9815L407.139 24.535C405.735 25.9084 403.457 25.9084 402.053 24.535C401.99 24.4733 401.93 24.41 401.872 24.3435C401.83 24.2961 401.79 24.2472 401.751 24.1964C401.689 24.122 401.633 24.0445 401.581 23.9654C401.552 23.9227 401.524 23.88 401.498 23.8357C401.495 23.8293 401.492 23.8248 401.49 23.8198H401.489C401.463 23.777 401.438 23.7328 401.414 23.6901C401.411 23.6838 401.409 23.6792 401.404 23.6729C401.38 23.6252 401.356 23.5778 401.333 23.5289C401.309 23.4767 401.285 23.4245 401.264 23.3723C401.241 23.3185 401.22 23.2647 401.202 23.2125C401.183 23.1587 401.165 23.1033 401.149 23.0495C401.131 22.9957 401.117 22.9404 401.104 22.885C401.091 22.8359 401.079 22.7869 401.07 22.7379C401.068 22.7315 401.066 22.7252 401.066 22.7189C401.055 22.6667 401.047 22.616 401.039 22.5638C401.037 22.5592 401.037 22.5529 401.036 22.5466C401.029 22.5037 401.024 22.4596 401.019 22.4153C401.016 22.393 401.015 22.3694 401.013 22.3471C401.01 22.3044 401.007 22.2601 401.005 22.2175C401.002 22.162 401 22.1083 401 22.053V22.034C401 21.9834 401.002 21.9327 401.005 21.8805C401.007 21.8392 401.01 21.7967 401.013 21.7555V21.7492C401.018 21.7081 401.021 21.6653 401.028 21.6242C401.028 21.6131 401.029 21.6019 401.031 21.591C401.036 21.5578 401.041 21.5245 401.047 21.4913C401.049 21.469 401.053 21.4454 401.058 21.4217C401.063 21.3932 401.068 21.3647 401.074 21.3363C401.084 21.2904 401.094 21.2445 401.107 21.1986C401.118 21.1496 401.131 21.1023 401.147 21.0547C401.146 21.0515 401.147 21.0483 401.151 21.0437C401.165 20.9931 401.181 20.9409 401.201 20.8901C401.218 20.8347 401.239 20.7795 401.264 20.724C401.285 20.6718 401.309 20.6196 401.333 20.5674C401.359 20.509 401.388 20.452 401.421 20.3949C401.445 20.3508 401.471 20.3063 401.498 20.262C401.529 20.2082 401.563 20.1544 401.6 20.1022C401.631 20.0564 401.662 20.0121 401.696 19.9678C401.723 19.9314 401.752 19.8948 401.783 19.8586C401.866 19.7558 401.956 19.6561 402.053 19.5612L407.02 14.7041L407.025 14.6994L407.754 13.9858L407.827 13.9146L407.952 13.7928L408.589 13.1695L408.618 13.141L408.62 13.1394C408.702 13.0603 408.819 13.0839 408.958 13.1869C409.005 13.2217 409.055 13.266 409.108 13.3182C409.145 13.3544 409.183 13.394 409.221 13.4384C409.257 13.478 409.293 13.5209 409.33 13.5666C409.374 13.6205 409.419 13.6773 409.463 13.7392C409.526 13.8229 409.59 13.9132 409.657 14.0097C409.741 14.133 409.826 14.2643 409.912 14.4035C409.917 14.4098 409.922 14.4162 409.925 14.4225C409.97 14.4953 410.016 14.5698 410.063 14.6456C410.155 14.7975 410.249 14.9541 410.341 15.1155C410.386 15.1963 410.433 15.277 410.478 15.3575C410.548 15.4809 410.616 15.6045 410.684 15.7277C410.729 15.8102 410.773 15.8923 410.818 15.9747C410.862 16.057 410.906 16.1375 410.949 16.2199C411.048 16.4066 411.143 16.5901 411.234 16.7657C411.261 16.8195 411.289 16.8717 411.315 16.924C411.352 16.9967 411.389 17.0695 411.425 17.1407C411.498 17.2829 411.564 17.4158 411.625 17.5394C411.656 17.6011 411.685 17.6614 411.713 17.7166C411.907 18.1116 412.025 18.8109 412.025 18.8109Z" fill="#58557A"/>
<path d="M412.025 18.811V19.7571L409.75 21.9815L407.139 24.535C405.735 25.9084 403.457 25.9084 402.053 24.535C401.99 24.4733 401.93 24.41 401.872 24.3436C401.83 24.2961 401.79 24.2472 401.751 24.1964C401.689 24.1221 401.633 24.0445 401.581 23.9654C401.552 23.9227 401.524 23.88 401.498 23.8357C401.495 23.8311 401.492 23.8248 401.489 23.8199H401.49C402.867 24.6076 404.663 24.4242 405.845 23.2693L410.085 19.1226L410.731 18.4915V17.0976C410.731 17.0976 410.708 17.0501 410.668 16.9662C410.506 16.6262 410.045 15.6752 409.509 14.6833C409.495 14.6564 409.482 14.6311 409.467 14.6057C409.461 14.5931 409.454 14.5822 409.45 14.5709C409.298 14.2941 409.142 14.0156 408.989 13.7482C408.953 13.6913 408.921 13.6343 408.887 13.5774C408.835 13.4904 408.783 13.4049 408.733 13.3211C408.694 13.2594 408.657 13.1993 408.62 13.1393C408.702 13.0602 408.819 13.0838 408.958 13.1868C409.005 13.2216 409.055 13.2659 409.108 13.3181C409.144 13.3529 409.183 13.3939 409.221 13.4383C409.257 13.4779 409.293 13.5207 409.33 13.5665C409.374 13.6204 409.419 13.6772 409.463 13.7391C409.526 13.8228 409.59 13.9131 409.657 14.0096C409.741 14.1329 409.827 14.2642 409.912 14.4034C409.917 14.4097 409.922 14.416 409.925 14.4224C409.972 14.4952 410.017 14.5697 410.063 14.6455C410.155 14.7973 410.249 14.954 410.341 15.1153C410.388 15.1962 410.433 15.2769 410.478 15.3574C410.548 15.4808 410.616 15.6044 410.684 15.7276C410.729 15.81 410.775 15.8921 410.818 15.9746C410.862 16.0568 410.906 16.1374 410.949 16.2198C411.048 16.4065 411.143 16.59 411.234 16.7656C411.261 16.8194 411.289 16.8716 411.315 16.9238C411.352 16.9966 411.389 17.0694 411.425 17.1406C411.498 17.2828 411.564 17.4157 411.625 17.5393C411.656 17.601 411.685 17.6613 411.713 17.7165C411.907 18.1117 412.025 18.811 412.025 18.811Z" fill="#3C3A57"/>
<path opacity="0.5" d="M410.732 17.0971V18.4908L405.845 23.2685C404.663 24.4243 402.865 24.6078 401.488 23.8191C401.11 23.1863 400.952 22.4639 401.012 21.755C401.079 20.9538 401.428 20.1716 402.053 19.5601L407.827 13.9139L408.618 13.1404L408.62 13.1392C409.603 14.7002 410.732 17.0971 410.732 17.0971Z" fill="#58557A"/>
<path d="M412.025 12.4446V18.8109C411.561 19.0245 411.043 19.1448 410.493 19.1448C410.356 19.1448 410.218 19.1369 410.085 19.1225C409.398 19.0467 408.77 18.7809 408.256 18.379C407.665 17.9216 407.225 17.2841 407.023 16.55C406.94 16.2557 406.897 15.9472 406.897 15.6276C406.897 15.5896 406.897 15.5518 406.9 15.5153C406.908 15.2352 406.95 14.9631 407.023 14.7052C407.023 14.7021 407.023 14.7007 407.025 14.6989C407.099 14.4317 407.204 14.1784 407.337 13.9411C407.434 13.7671 407.546 13.6025 407.673 13.4475C407.757 13.3399 407.851 13.2372 407.95 13.1407C408.013 13.079 408.079 13.0187 408.149 12.9619C408.183 12.9319 408.218 12.9018 408.256 12.8765C408.464 12.712 408.691 12.5727 408.932 12.4587C409.336 12.2672 409.781 12.1486 410.25 12.1201C410.323 12.1138 410.396 12.1106 410.47 12.1106H410.493C411.043 12.1109 411.561 12.2312 412.025 12.4446Z" fill="#8984C0"/>
<path d="M410.493 16.9763C411.255 16.9763 411.872 16.3724 411.872 15.6275C411.872 14.8827 411.255 14.2788 410.493 14.2788C409.731 14.2788 409.114 14.8827 409.114 15.6275C409.114 16.3724 409.731 16.9763 410.493 16.9763Z" fill="#58557A"/>
<path d="M405.681 19.1187C406.168 19.1187 406.563 18.7329 406.563 18.2569C406.563 17.781 406.168 17.3951 405.681 17.3951C405.195 17.3951 404.8 17.781 404.8 18.2569C404.8 18.7329 405.195 19.1187 405.681 19.1187Z" fill="#3C3A57"/>
<path d="M411.932 2.66346C412.684 2.66346 413.293 2.06717 413.293 1.33165C413.293 0.596294 412.684 0 411.932 0H410.826C410.074 0 409.464 0.596294 409.464 1.33165C409.464 2.06717 410.074 2.66346 410.826 2.66346H411.932Z" fill="#58557A"/>
<path d="M413.549 5.32691C414.301 5.32691 414.911 4.73062 414.911 3.9951C414.911 3.25974 414.301 2.66345 413.549 2.66345H410.826C410.074 2.66345 409.464 3.25974 409.464 3.9951C409.464 4.73062 410.074 5.32691 410.826 5.32691H413.549Z" fill="#58557A"/>
<path d="M414.358 7.99061C415.11 7.99061 415.72 7.39432 415.72 6.6588C415.72 5.92344 415.11 5.32715 414.358 5.32715H410.826C410.074 5.32715 409.464 5.92344 409.464 6.6588C409.464 7.39432 410.074 7.99061 410.826 7.99061H414.358Z" fill="#58557A"/>
<path d="M414.358 26.6729C415.11 26.6729 415.72 26.0764 415.72 25.3411C415.72 24.6057 415.11 24.0093 414.358 24.0093H410.826C410.074 24.0093 409.464 24.6057 409.464 25.3411C409.464 26.0764 410.074 26.6729 410.826 26.6729H414.358Z" fill="#58557A"/>
<path d="M413.549 29.3366C414.301 29.3366 414.911 28.7401 414.911 28.0048C414.911 27.2694 414.301 26.673 413.549 26.673H410.826C410.074 26.673 409.464 27.2694 409.464 28.0048C409.464 28.7401 410.074 29.3366 410.826 29.3366H413.549Z" fill="#58557A"/>
<path d="M411.932 32C412.684 32 413.293 31.4037 413.293 30.6682C413.293 29.9328 412.684 29.3365 411.932 29.3365H410.826C410.074 29.3365 409.464 29.9328 409.464 30.6682C409.464 31.4037 410.074 32 410.826 32H411.932Z" fill="#58557A"/>
<rect x="424" y="15.5" width="392" height="1" fill="#58557A"/>
</svg>
