<svg width="32" height="32" viewBox="0 0 32 32" fill="none" xmlns="http://www.w3.org/2000/svg">
<g clip-path="url(#clip0_2142_100696)">
<path d="M14.4066 23.2624C14.9066 23.2624 15.3566 23.6624 15.3566 24.2124C15.3566 24.7124 14.9566 25.1624 14.4066 25.1624C13.9066 25.1624 13.4566 24.7624 13.4566 24.2124C13.4566 23.6624 13.9066 23.2624 14.4066 23.2624ZM29.1066 17.4624C28.6066 17.4624 28.1566 17.0624 28.1566 16.5124C28.1566 16.0124 28.5566 15.5624 29.1066 15.5624C29.6066 15.5624 30.0566 15.9624 30.0566 16.5124C30.0566 17.0124 29.6066 17.4624 29.1066 17.4624ZM29.1066 13.6124C27.5066 13.6124 26.2066 14.9124 26.2066 16.5124C26.2066 16.8124 26.2566 17.1124 26.3566 17.4124L16.8066 22.5124C16.2566 21.7124 15.3566 21.2624 14.4066 21.2624C13.3066 21.2624 12.3066 21.9124 11.8066 22.8624L3.20658 18.3624C2.30658 17.8624 1.60658 16.4124 1.70658 15.0124C1.75658 14.3124 2.00658 13.7624 2.35658 13.5624C2.60658 13.4124 2.85658 13.4624 3.20658 13.6124L3.25658 13.6624C5.55658 14.8624 13.0066 18.7624 13.3066 18.9124C13.8066 19.1124 14.0566 19.2124 14.9066 18.8124L30.3066 10.8124C30.5566 10.7124 30.8066 10.5124 30.8066 10.1624C30.8066 9.71242 30.3566 9.51242 30.3566 9.51242C29.4566 9.11242 28.1066 8.46242 26.8066 7.86242C24.0066 6.56242 20.8066 5.06242 19.4066 4.31242C18.2066 3.66242 17.2066 4.21242 17.0566 4.31242L16.7066 4.46242C10.3566 7.66242 1.95658 11.8124 1.45658 12.1124C0.606581 12.6124 0.0565805 13.6624 0.00658045 14.9624C-0.0934196 17.0124 0.956581 19.1624 2.45658 19.9124L11.5566 24.6124C11.7566 26.0124 13.0066 27.1124 14.4066 27.1124C16.0066 27.1124 17.2566 25.8624 17.3066 24.2624L27.3066 18.8624C27.8066 19.2624 28.4566 19.4624 29.1066 19.4624C30.7066 19.4624 32.0066 18.1624 32.0066 16.5624C32.0066 14.9124 30.7066 13.6124 29.1066 13.6124Z" fill="#EF1120"/>
</g>
<defs>
<clipPath id="clip0_2142_100696">
<rect width="32" height="32" fill="white"/>
</clipPath>
</defs>
</svg>
