<svg width="135" height="135" viewBox="0 0 135 135" fill="none" xmlns="http://www.w3.org/2000/svg">
<g clip-path="url(#clip0_1884_141339)">
<rect width="135" height="135" fill="#EEE3D1"/>
<path d="M68.6664 136C68.6664 172.819 38.8187 202.667 1.99968 202.667C-34.8193 202.667 -64.667 172.819 -64.667 136C-64.667 99.1812 -34.8193 69.3335 1.99968 69.3335C38.8187 69.3335 68.6664 99.1812 68.6664 136Z" stroke="#FDF1DA" stroke-width="2"/>
<path d="M134 202.667C134 239.486 104.152 269.333 67.333 269.333C30.514 269.333 0.666344 239.486 0.666344 202.667C0.666344 165.848 30.514 136 67.333 136C104.152 136 134 165.848 134 202.667Z" stroke="#FDF1DA" stroke-width="2"/>
<path d="M203.666 136C203.666 172.819 173.819 202.667 137 202.667C100.181 202.667 70.333 172.819 70.333 136C70.333 99.1812 100.181 69.3335 137 69.3335C173.819 69.3335 203.666 99.1812 203.666 136Z" stroke="#FDF1DA" stroke-width="2"/>
<path d="M269 202.667C269 239.486 239.152 269.333 202.333 269.333C165.514 269.333 135.666 239.486 135.666 202.667C135.666 165.848 165.514 136 202.333 136C239.152 136 269 165.848 269 202.667Z" stroke="#FDF1DA" stroke-width="2"/>
<path d="M68.6664 1.00015C68.6664 37.8191 38.8187 67.6668 1.99968 67.6668C-34.8193 67.6668 -64.667 37.8191 -64.667 1.00015C-64.667 -35.8188 -34.8193 -65.6665 1.99968 -65.6665C38.8187 -65.6665 68.6664 -35.8188 68.6664 1.00015Z" stroke="#FDF1DA" stroke-width="2"/>
<path d="M134 67.6668C134 104.486 104.152 134.333 67.333 134.333C30.514 134.333 0.666344 104.486 0.666344 67.6668C0.666344 30.8478 30.514 1.00016 67.333 1.00016C104.152 1.00016 134 30.8478 134 67.6668Z" stroke="#FDF1DA" stroke-width="2"/>
<path d="M203.666 1.00015C203.666 37.8191 173.819 67.6668 137 67.6668C100.181 67.6668 70.333 37.8191 70.333 1.00015C70.333 -35.8188 100.181 -65.6665 137 -65.6665C173.819 -65.6665 203.666 -35.8188 203.666 1.00015Z" stroke="#FDF1DA" stroke-width="2"/>
<path d="M269 67.6668C269 104.486 239.152 134.333 202.333 134.333C165.514 134.333 135.666 104.486 135.666 67.6668C135.666 30.8478 165.514 1.00016 202.333 1.00016C239.152 1.00016 269 30.8478 269 67.6668Z" stroke="#FDF1DA" stroke-width="2"/>
</g>
<defs>
<clipPath id="clip0_1884_141339">
<rect width="135" height="135" fill="white"/>
</clipPath>
</defs>
</svg>
