<svg width="744" height="264" viewBox="0 0 744 264" fill="none" xmlns="http://www.w3.org/2000/svg">
<path d="M25.0084 25.1429L0 0H100.034L125.042 100.571L150.05 0H225.076V176H162.555V92.1486L137.546 176H112.538L87.5294 92.5257V176H0L25.0084 150.857V25.1429Z" fill="#EF1120"/>
<path d="M340.74 113.143L331.361 75.4286L321.983 113.143H340.74ZM225.076 176L251.334 149.6L287.096 24.0114L263.213 0H368.874L418.891 176H356.37L353.244 163.429H309.479L306.353 176H225.076Z" fill="#EF1120"/>
<path d="M428.894 28.9143L400.134 0H475.16L500.168 37.7143L525.177 0H587.698L531.554 100.571V176H444.149L469.033 150.983V100.571L428.894 28.9143Z" fill="#EF1120"/>
<path d="M744 62.8571V176H643.966C610.622 176 593.95 159.238 593.95 125.714V50.2857C593.95 16.7619 610.622 0 643.966 0H731.496L712.74 50.2857H668.975C660.639 50.2857 656.471 54.4762 656.471 62.8571V113.143C656.471 121.524 660.639 125.714 668.975 125.714H681.479V113.143H668.975L687.731 62.8571H744Z" fill="#EF1120"/>
<path fill-rule="evenodd" clip-rule="evenodd" d="M16 200C7.16344 200 0 207.163 0 216V248C0 256.837 7.16343 264 16 264H728C736.837 264 744 256.837 744 248V216C744 207.163 736.837 200 728 200H16ZM320.208 209.496L325.304 211.232C324.744 212.296 323.96 214.2 323.512 215.376C321.645 220.241 318.828 226.443 315.064 231.825C320.061 235.988 324.924 240.349 328.888 244.664L325.36 248.528C321.245 243.768 316.954 239.755 312.138 235.633C306.9 241.998 299.95 248.676 290.192 253.736L286.384 250.264C296.13 245.6 303.033 239.466 308.605 232.686C304.427 229.322 298.167 224.657 292.768 221.368L295.736 217.84C300.546 220.901 307.043 225.522 311.459 228.923C315.05 223.72 317.379 218.405 319.032 213.64C319.424 212.52 319.928 210.672 320.208 209.496ZM351 236.152L348.816 231.784C358.504 229.208 367.016 225.232 373.232 221.368C379.112 217.672 384.712 212.856 388.576 208.152L392.328 211.68C388.025 216.133 382.874 220.362 377.152 224.128V247.8C377.152 249.872 377.264 252.672 377.544 253.736H372C372.168 252.672 372.336 249.872 372.336 247.8V227.069C366.422 230.384 358.753 233.744 351 236.152ZM447.704 217.896L450.504 216.664C451.792 218.568 453.584 221.424 454.816 223.888L451.904 225.232C450.616 222.488 449.384 220.248 447.704 217.896ZM453.64 215.768L456.384 214.48C457.728 216.328 459.576 219.184 460.864 221.592L458.008 222.936C456.664 220.248 455.376 218.12 453.64 215.768ZM416.904 217.952L415.784 213.808C419.984 214.032 428.552 213.752 434.6 212.968C439.696 212.24 446.304 210.896 449.048 209.72L451.96 213.64C450.728 213.92 449.664 214.2 448.824 214.424C446.011 215.152 441.769 216.005 437.736 216.585V227.36H453.192C454.424 227.36 456.44 227.248 457.616 227.136V231.784C456.384 231.672 454.704 231.56 453.304 231.56H437.664C437.086 242.046 432.954 249.441 423.288 255.024L418.92 251.944C427.748 247.865 432.436 241.597 433.114 231.56H416.456C414.664 231.56 412.76 231.672 411.416 231.784V227.136C412.648 227.248 414.664 227.36 416.344 227.36H433.2V217.148C427.532 217.731 421.243 217.904 416.904 217.952Z" fill="#EF1120"/>
</svg>
