<svg width="144" height="44" viewBox="0 0 144 44" fill="none" xmlns="http://www.w3.org/2000/svg">
<path d="M75.5796 37.0218C75.5796 35.4234 74.5828 34.3997 72.7554 34.3997H71.0088V39.644H72.7554C74.5828 39.644 75.5796 38.6158 75.5796 37.0218Z" fill="#58557A"/>
<path d="M116.104 37.0218C116.104 35.4189 114.946 34.3368 113.46 34.3368C111.969 34.3368 110.811 35.4189 110.811 37.0218C110.811 38.6248 111.969 39.7068 113.46 39.7068C114.946 39.7068 116.104 38.6248 116.104 37.0218Z" fill="#58557A"/>
<path fill-rule="evenodd" clip-rule="evenodd" d="M6.57461 30.2227C2.94355 30.2227 0 33.1663 0 36.7973C0 40.4284 2.94356 43.372 6.57461 43.372H137.425C141.056 43.372 144 40.4284 144 36.7973C144 33.1663 141.056 30.2227 137.425 30.2227H6.57461ZM8.52466 33.8115C9.49899 33.8115 10.2264 34.1168 10.7697 34.503L10.4868 34.9475C9.99738 34.6017 9.34633 34.3323 8.52017 34.3323C7.50993 34.3323 6.76908 34.7993 6.76908 35.585C6.76908 36.2092 7.23155 36.5908 8.30465 36.712L8.99162 36.7884C10.1096 36.9141 10.9223 37.3541 10.9223 38.4003C10.9223 39.6215 9.8088 40.2322 8.45282 40.2322C7.50993 40.2322 6.57601 39.8864 6.01925 39.4464L6.32008 39.0109C6.7601 39.3611 7.57728 39.7113 8.44833 39.7113C9.51246 39.7113 10.3521 39.2938 10.3521 38.4452C10.3521 37.7627 9.80431 37.4304 8.75814 37.3137L8.04424 37.2329C6.8948 37.1027 6.19885 36.5863 6.19885 35.621C6.19885 34.4626 7.23155 33.8115 8.52466 33.8115ZM26.9459 33.8789H32.0241V34.3997H29.7566V40.1648H29.2089V34.3997H26.9459V33.8789ZM52.8569 33.8789H53.4091V37.7178C53.4091 39.397 52.2732 40.2322 50.8633 40.2322C49.4535 40.2322 48.322 39.397 48.322 37.7178V33.8789H48.8698V37.6774C48.8698 39.0603 49.7319 39.7068 50.8633 39.7068C51.9993 39.7068 52.8569 39.0603 52.8569 37.6774V33.8789ZM70.461 40.1648V33.8789H72.7554C74.8477 33.8789 76.1543 35.0912 76.1543 37.0218C76.1543 38.9525 74.8477 40.1648 72.7554 40.1648H70.461ZM92.9179 33.8789H93.4657V40.1648H92.9179V33.8789ZM110.24 37.0218C110.24 35.1361 111.623 33.807 113.46 33.807C115.296 33.807 116.679 35.1361 116.679 37.0218C116.679 38.9076 115.296 40.2367 113.46 40.2367C111.623 40.2367 110.24 38.9076 110.24 37.0218ZM135.575 33.8115C136.55 33.8115 137.277 34.1168 137.82 34.503L137.537 34.9475C137.048 34.6017 136.397 34.3323 135.571 34.3323C134.561 34.3323 133.82 34.7993 133.82 35.585C133.82 36.2092 134.282 36.5908 135.355 36.712L136.042 36.7884C137.16 36.9141 137.973 37.3541 137.973 38.4003C137.973 39.6215 136.859 40.2322 135.503 40.2322C134.561 40.2322 133.627 39.8864 133.07 39.4464L133.371 39.0109C133.811 39.3611 134.628 39.7113 135.499 39.7113C136.563 39.7113 137.403 39.2938 137.403 38.4452C137.403 37.7627 136.855 37.4304 135.809 37.3137L135.095 37.2329C133.945 37.1027 133.249 36.5863 133.249 35.621C133.249 34.4626 134.282 33.8115 135.575 33.8115Z" fill="#58557A"/>
<path d="M6.19343 1.20075C7.54812 1.20075 8.81814 1.48554 10.0035 2.05513C11.1889 2.62471 12.1356 3.40982 12.8437 4.41044C13.5673 5.41107 13.929 6.53484 13.929 7.78177C13.929 8.96713 13.6134 10.0601 12.9823 11.0607C12.3511 12.0614 11.4813 12.8542 10.373 13.4391C9.27997 14.0241 8.07922 14.3166 6.77071 14.3166C6.35507 14.3166 5.89324 14.2781 5.38523 14.2012L5.50069 18.8425H0.882428L0.420601 2.79405C2.51421 1.73185 4.43849 1.20075 6.19343 1.20075ZM5.29287 9.97545C5.64694 10.114 6.0087 10.1833 6.37816 10.1833C6.87078 10.1833 7.3403 10.0755 7.78673 9.85999C8.24856 9.64447 8.61802 9.35198 8.89511 8.98252C9.17221 8.61306 9.31076 8.21281 9.31076 7.78177C9.31076 7.02746 9.03366 6.40399 8.47947 5.91138C7.92528 5.40337 7.27872 5.14936 6.5398 5.14936C6.07797 5.14936 5.63154 5.26482 5.2005 5.49573L5.29287 9.97545Z" fill="#58557A"/>
<path d="M19.8471 6.44248C21.7713 6.44248 23.2646 7.00437 24.3268 8.12814C25.389 9.25192 25.9201 10.7836 25.9201 12.7233C25.9201 13.0466 25.9124 13.2929 25.897 13.4622L17.7227 13.5546C17.9074 14.0626 18.1614 14.486 18.4847 14.8246C18.8234 15.1479 19.2159 15.3249 19.6623 15.3557C20.8939 15.4481 21.7867 15.0863 22.3409 14.2704L25.643 15.2172C25.4429 15.9407 25.058 16.595 24.4884 17.1799C23.9188 17.7495 23.2338 18.196 22.4333 18.5192C21.6482 18.8425 20.8323 19.0042 19.9856 19.0042C19.7855 19.0042 19.6316 18.9965 19.5238 18.9811C18.4616 18.9041 17.4764 18.5577 16.5681 17.942C15.6752 17.3262 14.9594 16.518 14.4206 15.5174C13.8972 14.5167 13.6355 13.4238 13.6355 12.2384C13.6355 12.0075 13.6432 11.8305 13.6586 11.7073C13.7202 10.6913 14.0281 9.78302 14.5823 8.98252C15.1518 8.18202 15.8908 7.55856 16.799 7.11213C17.7227 6.66569 18.7387 6.44248 19.8471 6.44248ZM20.078 9.3058C18.9388 9.21344 18.1614 9.69066 17.7458 10.7375L21.6482 10.7606C21.5866 10.3141 21.4019 9.96775 21.094 9.72144C20.8015 9.47514 20.4628 9.33659 20.078 9.3058Z" fill="#58557A"/>
<path d="M32.5428 6.44248C34.4671 6.44248 35.9603 7.00437 37.0225 8.12814C38.0847 9.25192 38.6158 10.7836 38.6158 12.7233C38.6158 13.0466 38.6081 13.2929 38.5927 13.4622L30.4184 13.5546C30.6031 14.0626 30.8571 14.486 31.1804 14.8246C31.5191 15.1479 31.9116 15.3249 32.3581 15.3557C33.5896 15.4481 34.4825 15.0863 35.0366 14.2704L38.3387 15.2172C38.1386 15.9407 37.7537 16.595 37.1841 17.1799C36.6146 17.7495 35.9295 18.196 35.129 18.5192C34.3439 18.8425 33.528 19.0042 32.6813 19.0042C32.4812 19.0042 32.3273 18.9965 32.2195 18.9811C31.1573 18.9041 30.1721 18.5577 29.2638 17.942C28.371 17.3262 27.6551 16.518 27.1163 15.5174C26.5929 14.5167 26.3312 13.4238 26.3312 12.2384C26.3312 12.0075 26.3389 11.8305 26.3543 11.7073C26.4159 10.6913 26.7238 9.78302 27.278 8.98252C27.8475 8.18202 28.5865 7.55856 29.4947 7.11213C30.4184 6.66569 31.4344 6.44248 32.5428 6.44248ZM32.7737 9.3058C31.6345 9.21344 30.8571 9.69066 30.4415 10.7375L34.3439 10.7606C34.2823 10.3141 34.0976 9.96775 33.7897 9.72144C33.4972 9.47514 33.1586 9.33659 32.7737 9.3058Z" fill="#58557A"/>
<path d="M46.9451 19.0734L43.4583 13.9702L43.4352 18.7963L39.1171 18.8425V0.230913L43.4814 0L43.4583 10.5527L46.2293 6.30393L50.8937 6.60412L47.3376 12.146L51.9559 18.8425L46.9451 19.0734Z" fill="#58557A"/>
<path d="M54.1323 5.65737C53.6858 5.65737 53.2471 5.54192 52.8161 5.311C52.4004 5.0647 52.054 4.73372 51.7769 4.31808C51.5152 3.90243 51.3844 3.456 51.3844 2.97878C51.3844 2.23986 51.6615 1.62409 52.2157 1.13148C52.7853 0.63886 53.4626 0.392553 54.2477 0.392553C54.9866 0.392553 55.5793 0.615769 56.0257 1.0622C56.4876 1.50863 56.7185 2.10131 56.7185 2.84023C56.7185 3.65613 56.4722 4.33347 55.9796 4.87227C55.4869 5.39567 54.8712 5.65737 54.1323 5.65737ZM51.6153 6.53484H56.4414V18.7732H51.9848L51.6153 6.53484Z" fill="#58557A"/>
<path d="M65.8127 6.32702C66.9518 6.32702 67.8524 6.71188 68.5144 7.48159C69.1763 8.2359 69.4919 9.3058 69.4611 10.6913L69.3226 18.8425H65.0968L65.1199 13.4161C65.1199 12.2923 64.966 11.4918 64.6581 11.0146C64.3656 10.5373 63.9269 10.2987 63.3419 10.2987C62.8647 10.2987 62.449 10.4373 62.095 10.7144C61.7563 10.9915 61.5485 11.461 61.4715 12.1229L61.4946 18.8425H57.3151V6.53484L61.4484 6.46557V7.64323C62.0334 7.25837 62.7184 6.94279 63.5035 6.69648C64.2887 6.45017 65.0584 6.32702 65.8127 6.32702Z" fill="#58557A"/>
<path d="M83.2717 6.55793L83.1331 18.0574C83.1178 18.7963 82.9407 19.6584 82.602 20.6436C82.2788 21.6289 81.6553 22.514 80.7316 23.2991C79.808 24.0996 78.538 24.4999 76.9216 24.4999C75.5515 24.4999 74.3354 24.1997 73.2732 23.5993C72.2263 23.0143 71.4028 22.1831 70.8024 21.1055C70.2174 20.0433 69.9249 18.8194 69.9249 17.4339L74.1968 18.8425C74.2122 19.3813 74.4431 19.8047 74.8895 20.1125C75.3514 20.4204 75.8825 20.5744 76.4828 20.5744C77.5758 20.5744 78.3225 20.2126 78.7227 19.4891C79.1384 18.7809 79.3385 17.9881 79.3231 17.1107V16.7874C78.7997 17.1415 78.1762 17.4339 77.4527 17.6649C76.7292 17.8958 76.0595 18.0112 75.4437 18.0112C74.4123 18.0112 73.4579 17.7803 72.5804 17.3185C71.7029 16.8413 71.0102 16.1947 70.5022 15.3788C69.9942 14.5475 69.7402 13.6239 69.7402 12.6079C69.7402 11.5611 70.0019 10.5527 70.5253 9.5829C71.0641 8.61306 71.7799 7.82796 72.6728 7.22758C73.5656 6.62721 74.5124 6.32702 75.513 6.32702C76.2673 6.32702 76.9909 6.41939 77.6836 6.60412C78.3917 6.77345 78.9921 7.01206 79.4847 7.31995L79.5078 6.55793H83.2717ZM75.9979 14.5244C76.6291 14.5244 77.1679 14.2858 77.6143 13.8086C78.0608 13.3314 78.284 12.7772 78.284 12.146C78.284 11.4995 78.0685 10.9607 77.6374 10.5296C77.2064 10.0986 76.6753 9.88308 76.0441 9.88308C75.4283 9.88308 74.9203 10.0986 74.5201 10.5296C74.1352 10.9607 73.9428 11.5149 73.9428 12.1922C73.9428 12.8696 74.1352 13.4314 74.5201 13.8779C74.9203 14.3089 75.4129 14.5244 75.9979 14.5244Z" fill="#58557A"/>
<path d="M94.2148 1.15457C96.0621 1.15457 97.8248 1.57791 99.5027 2.42459C101.196 3.27127 102.558 4.43353 103.59 5.91138C104.621 7.37383 105.137 9.00561 105.137 10.8067C105.137 13.5623 104.136 15.6174 102.135 16.9721C100.134 18.3268 97.4399 19.0042 94.0532 19.0042C92.6985 19.0042 91.3592 18.9272 90.0353 18.7732L90.22 2.03204C90.9282 1.72415 91.5901 1.50094 92.2059 1.36239C92.837 1.22384 93.5067 1.15457 94.2148 1.15457ZM94.6305 14.1319C98.2943 14.2089 100.126 12.8619 100.126 10.0909C100.126 9.3058 99.903 8.62076 99.4565 8.03578C99.0255 7.4508 98.4559 7.00437 97.7478 6.69648C97.055 6.3732 96.3392 6.21156 95.6003 6.21156C95.2154 6.21156 94.8922 6.24235 94.6305 6.30393V14.1319Z" fill="#58557A"/>
<path d="M118.201 6.51175V18.7271H113.814V17.5956C113.429 18.042 112.936 18.3961 112.336 18.6578C111.736 18.9041 111.089 19.0272 110.396 19.0272C108.811 19.0272 107.618 18.5038 106.817 17.457C106.017 16.3948 105.632 14.8477 105.663 12.8157L105.732 6.46557H110.004L109.981 12.5848C109.981 13.2313 110.135 13.7316 110.442 14.0857C110.766 14.4244 111.22 14.5937 111.805 14.5937C112.436 14.5937 112.929 14.3474 113.283 13.8548C113.652 13.3468 113.837 12.7079 113.837 11.9382V11.9613L113.86 6.51175H118.201Z" fill="#58557A"/>
<path d="M124.91 19.0042C123.786 19.0042 122.74 18.7117 121.77 18.1267C120.8 17.5263 120.03 16.7335 119.461 15.7483C118.891 14.7477 118.606 13.6778 118.606 12.5386C118.606 11.3994 118.876 10.3603 119.414 9.42126C119.969 8.46682 120.708 7.7125 121.631 7.15831C122.57 6.60412 123.602 6.32702 124.725 6.32702C125.726 6.32702 126.704 6.55793 127.658 7.01976C128.628 7.48159 129.413 8.10505 130.013 8.89016C130.614 9.67526 130.914 10.5219 130.914 11.4302L127.035 11.7766C126.896 11.3301 126.642 10.9761 126.273 10.7144C125.919 10.4373 125.518 10.2987 125.072 10.2987C124.456 10.2987 123.902 10.5296 123.409 10.9915C122.932 11.4379 122.693 11.9536 122.693 12.5386C122.693 12.9234 122.809 13.3006 123.04 13.6701C123.271 14.0395 123.571 14.3397 123.94 14.5706C124.325 14.8015 124.718 14.917 125.118 14.917C125.518 14.917 125.895 14.8015 126.249 14.5706C126.619 14.3397 126.881 14.0472 127.035 13.6932L130.868 14.0626C130.868 14.9093 130.575 15.7175 129.99 16.4872C129.421 17.2415 128.674 17.8496 127.75 18.3114C126.827 18.7732 125.88 19.0042 124.91 19.0042Z" fill="#58557A"/>
<path d="M138.927 19.0734L135.44 13.9702L135.417 18.7963L131.099 18.8425V0.230913L135.463 0L135.44 10.5527L138.211 6.30393L142.876 6.60412L139.32 12.146L143.938 18.8425L138.927 19.0734Z" fill="#58557A"/>
</svg>
